<svg width="234" height="234" viewBox="0 0 234 234" fill="none" xmlns="http://www.w3.org/2000/svg">
<g filter="url(#filter0_d_54_44)">
<line x1="61.0443" y1="134.053" x2="78.5419" y2="126.445" stroke="#163156" stroke-width="6" stroke-linecap="round"/>
<path d="M19.0438 170.052L80.9889 143" stroke="#163156" stroke-width="6" stroke-linecap="round"/>
<path d="M95.9893 119L73.4893 105L174.989 77L133.989 147.5L115.989 134L98.9893 146.5L95.9893 119Z" fill="url(#paint0_linear_54_44)"/>
<path d="M106.489 125L100.489 140.5V117.5L165.489 83L106.489 125Z" fill="white"/>
</g>
<g filter="url(#filter1_d_54_44)">
<path d="M43.488 173.987C57.7817 192.381 78.4577 204.74 101.426 208.621C124.395 212.503 147.984 207.623 167.528 194.947C187.072 182.271 201.147 162.723 206.969 140.168C212.792 117.613 209.938 93.6939 198.972 73.1419C188.007 52.59 169.728 36.9016 147.75 29.1797C125.773 21.4578 101.698 22.2647 80.2871 31.4407C58.8762 40.6168 41.6884 57.4939 32.1233 78.7339C22.5583 99.9739 21.3124 124.03 28.6321 146.145" stroke="#163156" stroke-width="5"/>
</g>
<defs>
<filter id="filter0_d_54_44" x="12.043" y="77" width="166.946" height="104.053" filterUnits="userSpaceOnUse" color-interpolation-filters="sRGB">
<feFlood flood-opacity="0" result="BackgroundImageFix"/>
<feColorMatrix in="SourceAlpha" type="matrix" values="0 0 0 0 0 0 0 0 0 0 0 0 0 0 0 0 0 0 127 0" result="hardAlpha"/>
<feOffset dy="4"/>
<feGaussianBlur stdDeviation="2"/>
<feComposite in2="hardAlpha" operator="out"/>
<feColorMatrix type="matrix" values="0 0 0 0 0 0 0 0 0 0 0 0 0 0 0 0 0 0 0.5 0"/>
<feBlend mode="normal" in2="BackgroundImageFix" result="effect1_dropShadow_54_44"/>
<feBlend mode="normal" in="SourceGraphic" in2="effect1_dropShadow_54_44" result="shape"/>
</filter>
<filter id="filter1_d_54_44" x="17.4214" y="21.4214" width="199" height="199" filterUnits="userSpaceOnUse" color-interpolation-filters="sRGB">
<feFlood flood-opacity="0" result="BackgroundImageFix"/>
<feColorMatrix in="SourceAlpha" type="matrix" values="0 0 0 0 0 0 0 0 0 0 0 0 0 0 0 0 0 0 127 0" result="hardAlpha"/>
<feOffset dy="4"/>
<feGaussianBlur stdDeviation="2"/>
<feComposite in2="hardAlpha" operator="out"/>
<feColorMatrix type="matrix" values="0 0 0 0 0 0 0 0 0 0 0 0 0 0 0 0 0 0 0.5 0"/>
<feBlend mode="normal" in2="BackgroundImageFix" result="effect1_dropShadow_54_44"/>
<feBlend mode="normal" in="SourceGraphic" in2="effect1_dropShadow_54_44" result="shape"/>
</filter>
<linearGradient id="paint0_linear_54_44" x1="158.489" y1="96.5" x2="124.239" y2="147.5" gradientUnits="userSpaceOnUse">
<stop offset="0.476809" stop-color="#32C8D9"/>
<stop offset="1" stop-color="#1E51AE" stop-opacity="0.81"/>
</linearGradient>
</defs>
</svg>
