<svg width="857" height="234" viewBox="0 0 857 234" fill="none" xmlns="http://www.w3.org/2000/svg">
<g filter="url(#filter0_d_54_30)">
<line x1="61.0443" y1="134.053" x2="78.5419" y2="126.445" stroke="#163156" stroke-width="6" stroke-linecap="round"/>
<path d="M19.0438 170.052L80.9889 143" stroke="#163156" stroke-width="6" stroke-linecap="round"/>
<path d="M95.9893 119L73.4893 105L174.989 77L133.989 147.5L115.989 134L98.9893 146.5L95.9893 119Z" fill="url(#paint0_linear_54_30)"/>
<path d="M106.489 125L100.489 140.5V117.5L165.489 83L106.489 125Z" fill="white"/>
</g>
<g filter="url(#filter1_d_54_30)">
<path d="M43.488 173.987C57.7817 192.381 78.4577 204.74 101.426 208.621C124.395 212.503 147.984 207.623 167.528 194.947C187.072 182.271 201.147 162.723 206.969 140.168C212.792 117.613 209.938 93.6939 198.972 73.1419C188.007 52.59 169.728 36.9016 147.75 29.1797C125.773 21.4578 101.698 22.2647 80.2871 31.4407C58.8762 40.6168 41.6884 57.4939 32.1233 78.7339C22.5583 99.9739 21.3124 124.03 28.6321 146.145" stroke="#163156" stroke-width="5"/>
</g>
<g filter="url(#filter2_di_54_30)">
<path d="M256.96 127.64V141H250.16C238.693 141 232.96 135.32 232.96 123.96V109.16H227.44V96.12H232.96V85.24H248.72V96.12H256.88V109.16H248.72V124.2C248.72 125.427 248.987 126.307 249.52 126.84C250.107 127.373 251.067 127.64 252.4 127.64H256.96ZM279.832 104.04C281.592 101.48 283.725 99.4533 286.232 97.96C288.739 96.4667 291.432 95.72 294.312 95.72V112.44H289.912C286.499 112.44 283.965 113.107 282.312 114.44C280.659 115.773 279.832 118.093 279.832 121.4V141H264.152V96.12H279.832V104.04ZM297.373 118.52C297.373 113.88 298.2 109.827 299.853 106.36C301.56 102.893 303.853 100.227 306.733 98.36C309.666 96.4933 312.92 95.56 316.493 95.56C319.586 95.56 322.253 96.1733 324.493 97.4C326.733 98.6267 328.466 100.28 329.693 102.36V96.12H345.373V141H329.693V134.76C328.466 136.84 326.706 138.493 324.413 139.72C322.173 140.947 319.533 141.56 316.493 141.56C312.92 141.56 309.666 140.627 306.733 138.76C303.853 136.893 301.56 134.227 299.853 130.76C298.2 127.24 297.373 123.16 297.373 118.52ZM329.693 118.52C329.693 115.64 328.893 113.373 327.293 111.72C325.746 110.067 323.826 109.24 321.533 109.24C319.186 109.24 317.24 110.067 315.693 111.72C314.146 113.32 313.373 115.587 313.373 118.52C313.373 121.4 314.146 123.693 315.693 125.4C317.24 127.053 319.186 127.88 321.533 127.88C323.826 127.88 325.746 127.053 327.293 125.4C328.893 123.747 329.693 121.453 329.693 118.52ZM375.828 126.2L384.228 96.12H400.948L385.508 141H365.988L350.548 96.12H367.268L375.828 126.2ZM414.181 91.96C411.408 91.96 409.168 91.2133 407.461 89.72C405.808 88.1733 404.981 86.2533 404.981 83.96C404.981 81.6133 405.808 79.6667 407.461 78.12C409.168 76.5733 411.408 75.8 414.181 75.8C416.901 75.8 419.088 76.5733 420.741 78.12C422.448 79.6667 423.301 81.6133 423.301 83.96C423.301 86.2533 422.448 88.1733 420.741 89.72C419.088 91.2133 416.901 91.96 414.181 91.96ZM421.941 96.12V141H406.261V96.12H421.941ZM460.231 95.72C465.404 95.72 469.511 97.4533 472.551 100.92C475.591 104.333 477.111 108.973 477.111 114.84V141H461.431V116.92C461.431 114.36 460.764 112.36 459.431 110.92C458.097 109.427 456.311 108.68 454.071 108.68C451.724 108.68 449.884 109.427 448.551 110.92C447.217 112.36 446.551 114.36 446.551 116.92V141H430.871V96.12H446.551V102.52C447.937 100.493 449.804 98.8667 452.151 97.64C454.497 96.36 457.191 95.72 460.231 95.72ZM528.594 118.04C528.594 119.267 528.514 120.493 528.354 121.72H498.674C498.834 124.173 499.501 126.013 500.674 127.24C501.901 128.413 503.448 129 505.314 129C507.928 129 509.794 127.827 510.914 125.48H527.634C526.941 128.573 525.581 131.347 523.554 133.8C521.581 136.2 519.074 138.093 516.034 139.48C512.994 140.867 509.634 141.56 505.954 141.56C501.528 141.56 497.581 140.627 494.114 138.76C490.701 136.893 488.008 134.227 486.034 130.76C484.114 127.293 483.154 123.213 483.154 118.52C483.154 113.827 484.114 109.773 486.034 106.36C487.954 102.893 490.621 100.227 494.034 98.36C497.501 96.4933 501.474 95.56 505.954 95.56C510.381 95.56 514.301 96.4667 517.714 98.28C521.128 100.093 523.794 102.707 525.714 106.12C527.634 109.48 528.594 113.453 528.594 118.04ZM512.594 114.12C512.594 112.2 511.954 110.707 510.674 109.64C509.394 108.52 507.794 107.96 505.874 107.96C503.954 107.96 502.381 108.493 501.154 109.56C499.928 110.573 499.128 112.093 498.754 114.12H512.594Z" fill="#163156"/>
<path d="M564.4 91.96C561.627 91.96 559.387 91.2133 557.68 89.72C556.027 88.1733 555.2 86.2533 555.2 83.96C555.2 81.6133 556.027 79.6667 557.68 78.12C559.387 76.5733 561.627 75.8 564.4 75.8C567.12 75.8 569.307 76.5733 570.96 78.12C572.667 79.6667 573.52 81.6133 573.52 83.96C573.52 86.2533 572.667 88.1733 570.96 89.72C569.307 91.2133 567.12 91.96 564.4 91.96ZM572.16 96.12V141H556.48V96.12H572.16ZM578.529 118.52C578.529 113.88 579.356 109.827 581.009 106.36C582.716 102.893 585.036 100.227 587.969 98.36C590.903 96.4933 594.156 95.56 597.729 95.56C600.609 95.56 603.169 96.1733 605.409 97.4C607.703 98.5733 609.489 100.2 610.769 102.28V81.8H626.529V141H610.769V134.76C609.543 136.84 607.809 138.493 605.569 139.72C603.329 140.947 600.689 141.56 597.649 141.56C594.076 141.56 590.823 140.627 587.889 138.76C585.009 136.893 582.716 134.227 581.009 130.76C579.356 127.24 578.529 123.16 578.529 118.52ZM610.849 118.52C610.849 115.64 610.049 113.373 608.449 111.72C606.903 110.067 604.983 109.24 602.689 109.24C600.343 109.24 598.396 110.067 596.849 111.72C595.303 113.32 594.529 115.587 594.529 118.52C594.529 121.4 595.303 123.693 596.849 125.4C598.396 127.053 600.343 127.88 602.689 127.88C604.983 127.88 606.903 127.053 608.449 125.4C610.049 123.747 610.849 121.453 610.849 118.52Z" fill="#32C8D9"/>
<circle cx="540.5" cy="134.5" r="7.5" fill="#32C8D9"/>
<ellipse cx="414.5" cy="84" rx="9.5" ry="9" fill="#D2692A"/>
</g>
<defs>
<filter id="filter0_d_54_30" x="12.043" y="77" width="166.946" height="104.053" filterUnits="userSpaceOnUse" color-interpolation-filters="sRGB">
<feFlood flood-opacity="0" result="BackgroundImageFix"/>
<feColorMatrix in="SourceAlpha" type="matrix" values="0 0 0 0 0 0 0 0 0 0 0 0 0 0 0 0 0 0 127 0" result="hardAlpha"/>
<feOffset dy="4"/>
<feGaussianBlur stdDeviation="2"/>
<feComposite in2="hardAlpha" operator="out"/>
<feColorMatrix type="matrix" values="0 0 0 0 0 0 0 0 0 0 0 0 0 0 0 0 0 0 0.5 0"/>
<feBlend mode="normal" in2="BackgroundImageFix" result="effect1_dropShadow_54_30"/>
<feBlend mode="normal" in="SourceGraphic" in2="effect1_dropShadow_54_30" result="shape"/>
</filter>
<filter id="filter1_d_54_30" x="17.4214" y="21.4214" width="199" height="199" filterUnits="userSpaceOnUse" color-interpolation-filters="sRGB">
<feFlood flood-opacity="0" result="BackgroundImageFix"/>
<feColorMatrix in="SourceAlpha" type="matrix" values="0 0 0 0 0 0 0 0 0 0 0 0 0 0 0 0 0 0 127 0" result="hardAlpha"/>
<feOffset dy="4"/>
<feGaussianBlur stdDeviation="2"/>
<feComposite in2="hardAlpha" operator="out"/>
<feColorMatrix type="matrix" values="0 0 0 0 0 0 0 0 0 0 0 0 0 0 0 0 0 0 0.5 0"/>
<feBlend mode="normal" in2="BackgroundImageFix" result="effect1_dropShadow_54_30"/>
<feBlend mode="normal" in="SourceGraphic" in2="effect1_dropShadow_54_30" result="shape"/>
</filter>
<filter id="filter2_di_54_30" x="223.44" y="72" width="407.089" height="78" filterUnits="userSpaceOnUse" color-interpolation-filters="sRGB">
<feFlood flood-opacity="0" result="BackgroundImageFix"/>
<feColorMatrix in="SourceAlpha" type="matrix" values="0 0 0 0 0 0 0 0 0 0 0 0 0 0 0 0 0 0 127 0" result="hardAlpha"/>
<feOffset dy="4"/>
<feGaussianBlur stdDeviation="2"/>
<feComposite in2="hardAlpha" operator="out"/>
<feColorMatrix type="matrix" values="0 0 0 0 0 0 0 0 0 0 0 0 0 0 0 0 0 0 0.5 0"/>
<feBlend mode="normal" in2="BackgroundImageFix" result="effect1_dropShadow_54_30"/>
<feBlend mode="normal" in="SourceGraphic" in2="effect1_dropShadow_54_30" result="shape"/>
<feColorMatrix in="SourceAlpha" type="matrix" values="0 0 0 0 0 0 0 0 0 0 0 0 0 0 0 0 0 0 127 0" result="hardAlpha"/>
<feOffset dx="5" dy="-3"/>
<feGaussianBlur stdDeviation="2"/>
<feComposite in2="hardAlpha" operator="arithmetic" k2="-1" k3="1"/>
<feColorMatrix type="matrix" values="0 0 0 0 0 0 0 0 0 0 0 0 0 0 0 0 0 0 0.5 0"/>
<feBlend mode="normal" in2="shape" result="effect2_innerShadow_54_30"/>
</filter>
<linearGradient id="paint0_linear_54_30" x1="158.489" y1="96.5" x2="124.239" y2="147.5" gradientUnits="userSpaceOnUse">
<stop offset="0.476809" stop-color="#32C8D9"/>
<stop offset="1" stop-color="#1E51AE" stop-opacity="0.81"/>
</linearGradient>
</defs>
</svg>
